<?xml version="1.0" encoding="utf-8"?>
<!-- Generator: Adobe Illustrator 21.0.0, SVG Export Plug-In . SVG Version: 6.00 Build 0)  -->
<svg version="1.1" id="Capa_1" xmlns="http://www.w3.org/2000/svg" xmlns:xlink="http://www.w3.org/1999/xlink" x="0px" y="0px"
	 viewBox="0 0 512 512" style="enable-background:new 0 0 512 512;" xml:space="preserve">
<style type="text/css">
	.st0{display:none;fill:#ffdd95;}
	.st1{fill:#ffdd95;}
</style>
<g id="Live_1_">
	<path class="st0" d="M425.7,56.6L15,153.7c-24.1,5.7-39.1,30-33.4,54.1L23,383c5.7,24.1,30,39.1,54.1,33.4l410.7-97.1
		c24.1-5.7,39.1-30,33.4-54.1L479.8,90C474.1,65.9,449.8,50.9,425.7,56.6z M151.9,337.1L93.5,351c-8.1,1.9-16.1-3.1-18-11.1
		L47.8,223c-1.9-8.1,3.1-16.1,11.1-18c8.1-1.9,16.1,3.1,18,11.1l24.2,102.2l43.8-10.4c8.1-1.9,16.1,3.1,18,11.1
		S159.9,335.2,151.9,337.1z M221.4,305.3c1.9,8.1-3.1,16.1-11.1,18s-16.1-3.1-18-11.1l-27.6-116.8c-1.9-8.1,3.1-16.1,11.1-18
		c8.1-1.9,16.1,3.1,18,11.1L221.4,305.3z M311,164.5l-1.6,123.7c-0.1,6.9-4.8,12.8-11.5,14.4c-6.7,1.6-13.6-1.6-16.8-7.7L224.3,185
		c-3.8-7.3-0.9-16.4,6.4-20.2c7.3-3.9,16.4-0.9,20.2,6.4l29.3,56.6l0.8-63.7c0.1-8.3,6.9-15,15.2-14.8
		C304.5,149.4,311.1,156.2,311,164.5L311,164.5z M423.1,180.5c8.1-1.9,16.1,3.1,18,11.1c1.9,8.1-3.1,16.1-11.1,18l-43.8,10.4
		l6.9,29.2l43.8-10.4c8.1-1.9,16.1,3.1,18,11.1c1.9,8.1-3.1,16.1-11.1,18l-58.4,13.8c-8.1,1.9-16.1-3.1-18-11.1L339.8,154
		c-1.9-8.1,3.1-16.1,11.1-18l58.4-13.8c8.1-1.9,16.1,3.1,18,11.1c1.9,8.1-3.1,16.1-11.1,18l-43.8,10.4l6.9,29.2L423.1,180.5z"/>
	<g>
		<g>
			<path class="st1" d="M460.2,370.5c-11.8-5.2-17.2-18.9-12-30.7c37.1-84.9,13.3-185.6-57.9-244.8c-9.9-8.2-11.2-22.9-3-32.8
				c8.2-9.9,23-11.2,32.8-3c87,72.5,116.1,195.5,70.8,299.3C485.7,370.3,472,375.6,460.2,370.5L460.2,370.5z"/>
		</g>
		<g>
			<g>
				<path class="st1" d="M91.9,452.8c-87-72.5-116.1-195.5-70.8-299.3c5.1-11.8,18.9-17.2,30.7-12c11.8,5.2,17.2,18.9,12,30.7
					C26.7,257.1,50.5,357.8,121.7,417c9.9,8.2,11.2,22.9,3,32.8C116.5,459.7,101.8,461.1,91.9,452.8L91.9,452.8z"/>
			</g>
			<g>
				<path class="st1" d="M162.7,389.8c-68.3-47.5-89.8-138.5-50-211.6c6.2-11.3,20.4-15.5,31.6-9.3c11.3,6.1,15.5,20.3,9.3,31.6
					c-28.4,52.2-13,117.2,35.7,151.1c10.5,7.3,13.1,21.9,5.8,32.4C187.9,394.5,173.3,397.1,162.7,389.8L162.7,389.8z"/>
			</g>
			<g>
				<path class="st1" d="M367.7,343.2c-11.3-6.1-15.5-20.3-9.3-31.6c28.4-52.2,13-117.2-35.7-151.1c-10.5-7.3-13.1-21.9-5.8-32.4
					c7.3-10.5,21.9-13.2,32.4-5.8c68.3,47.5,89.8,138.5,50,211.6C393.2,345.1,379,349.3,367.7,343.2L367.7,343.2z"/>
			</g>
			<g>
				<path class="st1" d="M272.1,324c-37.5,8.9-75.2-14.4-84.1-51.9c-8.9-37.5,14.4-75.2,51.9-84.1c37.5-8.9,75.2,14.4,84.1,51.9
					S309.6,315.1,272.1,324z"/>
			</g>
		</g>
	</g>
</g>
<g id="Live_2_">
	<path class="st0" d="M497.7,155.5L87.8,55.4c-24.1-5.9-48.5,8.9-54.4,33L-9.3,263.3c-5.9,24.1,8.9,48.5,33,54.4l410,100.1
		c24.1,5.9,48.5-8.9,54.4-33l42.7-174.9C536.7,185.7,521.8,161.4,497.7,155.5z M126.4,281l-58.3-14.2c-8.1-2-13-10.1-11-18.1
		L85.5,132c2-8.1,10.1-13,18.1-11s13,10.1,11,18.1l-24.9,102l43.7,10.7c8.1,2,13,10.1,11,18.1C142.5,278,134.4,282.9,126.4,281z
		 M202.8,284.2c-2,8.1-10.1,13-18.1,11c-8.1-2-13-10.1-11-18.1l28.5-116.6c2-8.1,10.1-13,18.1-11c8.1,2,13,10.1,11,18.1L202.8,284.2
		z M346.5,199.5L288.9,309c-3.2,6.1-10.1,9.2-16.8,7.6s-11.4-7.6-11.4-14.5L260,178.4c-0.1-8.3,6.6-15,14.9-15.1
		c8.3-0.1,15,6.6,15.1,14.9l0.4,63.7l29.7-56.4c3.8-7.3,12.9-10.2,20.2-6.3C347.6,183.1,350.4,192.2,346.5,199.5L346.5,199.5z
		 M439.2,264.7c8.1,2,13,10.1,11,18.1s-10.1,13-18.1,11l-43.7-10.7l-7.1,29.1l43.7,10.7c8.1,2,13,10.1,11,18.1
		c-2,8.1-10.1,13-18.1,11l-58.3-14.2c-8.1-2-13-10.1-11-18.1L377,203.2c2-8.1,10.1-13,18.1-11l58.3,14.2c8.1,2,13,10.1,11,18.1
		c-2,8.1-10.1,13-18.1,11l-43.7-10.7l-7.1,29.1L439.2,264.7z"/>
	<g>
		<g>
			<path class="st1" d="M385.9,450.8c-8.2-10-6.7-24.6,3.2-32.8c71.6-58.7,96.1-159.3,59.7-244.4c-5.1-11.8,0.4-25.5,12.2-30.6
				c11.8-5.1,25.6,0.5,30.6,12.2c44.6,104.1,14.6,226.9-72.9,298.8C408.7,462.2,394.1,460.7,385.9,450.8L385.9,450.8z"/>
		</g>
		<g>
			<g>
				<path class="st1" d="M20.4,356.8C-24.2,252.7,5.8,129.8,93.3,58c9.9-8.1,24.6-6.7,32.8,3.2s6.7,24.6-3.2,32.8
					c-71.6,58.7-96.1,159.3-59.7,244.4c5.1,11.8-0.4,25.5-12.2,30.6C39.2,374,25.4,368.6,20.4,356.8L20.4,356.8z"/>
			</g>
			<g>
				<path class="st1" d="M112.1,332.8c-39.2-73.4-17.1-164.2,51.6-211.2c10.6-7.3,25.2-4.5,32.4,6c7.3,10.6,4.6,25.1-6,32.4
					c-49,33.6-64.8,98.5-36.8,150.9c6.1,11.3,1.8,25.5-9.6,31.5C132.4,348.4,118.2,344.2,112.1,332.8L112.1,332.8z"/>
			</g>
			<g>
				<path class="st1" d="M315.9,384.4c-7.3-10.6-4.6-25.1,6-32.4c49-33.6,64.8-98.5,36.8-150.9c-6.1-11.3-1.8-25.5,9.6-31.5
					c11.3-6,25.5-1.8,31.5,9.6c39.2,73.4,17.1,164.2-51.6,211.2C337.7,397.7,323.2,395,315.9,384.4L315.9,384.4z"/>
			</g>
			<g>
				<path class="st1" d="M239.4,323.9c-37.4-9.1-60.5-47-51.3-84.5s47-60.5,84.5-51.3s60.5,47,51.3,84.5S276.9,333,239.4,323.9z"/>
			</g>
		</g>
	</g>
</g>
</svg>
